<svg xmlns="http://www.w3.org/2000/svg" viewBox="0 0 512 512" fill="none">
  <rect width="512" height="512" rx="96" fill="#0d9488"/>
  <!-- Paw print -->
  <ellipse cx="200" cy="180" rx="36" ry="44" fill="white" opacity="0.95"/>
  <ellipse cx="312" cy="180" rx="36" ry="44" fill="white" opacity="0.95"/>
  <ellipse cx="148" cy="260" rx="32" ry="40" fill="white" opacity="0.95"/>
  <ellipse cx="364" cy="260" rx="32" ry="40" fill="white" opacity="0.95"/>
  <!-- Main pad -->
  <path d="M256 280c-60 0-108 40-108 90s48 82 108 82 108-32 108-82-48-90-108-90z" fill="white" opacity="0.95"/>
  <!-- Heart in center of pad -->
  <path d="M256 340c-8-16-28-20-36-8s-4 28 12 40l24 18 24-18c16-12 20-28 12-40s-28-8-36 8z" fill="#0d9488"/>
</svg>
